<svg class="svg-icon" style="width: 1em;height: 1em;vertical-align: middle;fill: white;overflow: hidden;" viewBox="0 0 1024 1024" version="1.1" xmlns="http://www.w3.org/2000/svg"><path d="M503.979594 1024L21.847481 710.387189a43.923363 43.923363 0 0 1 48.022876-73.205605L504.126005 919.315985 938.967298 636.742351a43.923363 43.923363 0 1 1 47.876465 73.205604z" fill="white" /><path d="M503.979594 851.381184L21.847481 537.621962a43.923363 43.923363 0 0 1 48.022876-73.205605L504.126005 746.697169 938.967298 463.977123a43.923363 43.923363 0 0 1 47.876465 73.205605z" fill="white" /><path d="M515.106846 685.790106a86.236202 86.236202 0 0 1-46.851587-14.641121L32.974733 388.57535a43.923363 43.923363 0 1 1 47.876465-73.205605l434.255648 282.573635 435.426937-282.573635a43.923363 43.923363 0 1 1 47.730055 73.205605l-436.305405 283.305691a85.796969 85.796969 0 0 1-46.851587 13.909065z" fill="white" /><path d="M974.39881 394.431799a43.923363 43.923363 0 0 1-23.865027-7.027738L515.106846 104.830426 80.851198 387.404061a43.923363 43.923363 0 1 1-47.876465-73.205605L515.106846 0l483.156992 313.759222a43.923363 43.923363 0 0 1-23.865028 80.672577z" fill="white" /></svg>
