<svg
  width="24"
  height="24"
  viewBox="0 0 24 24"
  fill="none"
  xmlns="http://www.w3.org/2000/svg"
>
  <path
    d="M21.3 0H2.7C1.21 0 0 1.21 0 2.7v18.6C0 22.79 1.21 24 2.7 24h18.6c1.49 0 2.7-1.21 2.7-2.7V2.7C24 1.21 22.79 0 21.3 0zM7.08 20.399H3.359V9.924H7.08v10.475zM5.219 8.824H5.2c-1.37 0-2.25-.95-2.25-1.708 0-.977.822-1.709 2.076-1.709 1.253 0 2.251.732 2.251 1.709C7.28 7.874 6.29 8.824 5.218 8.824zM20.4 20.399h-3.727v-5.35c0-1.267-.024-2.893-1.761-2.893-1.763 0-2.034 1.377-2.034 2.805v5.438H9.389V9.924h3.468v1.487h.048c.484-.918 1.67-1.89 3.44-1.89 3.68 0 4.358 2.42 4.358 5.57v6.908z"
    fill="white"
  />
</svg>
