<svg enable-background="new 0 0 180.3848 188" id="microsoft" version="1.1" viewBox="0 0 180.3848 188" xml:space="preserve" xmlns="http://www.w3.org/2000/svg" xmlns:xlink="http://www.w3.org/1999/xlink">
  <g>
    <path d="M179.0196,0.99c-0.8672-0.7596-2.0176-1.1072-3.166-0.9548L95.4688,10.7948C93.4824,11.0604,92,12.7556,92,14.7596v70.3691c0,2.2089,1.7912,4,4,4h80.3848c2.2088,0,4-1.7911,4-4V4C180.3848,2.8456,179.8868,1.75,179.0196,0.99z M172.3848,81.1287H100V18.2596l72.3848-9.6892V81.1287z" fill="#ffffff"/>
    <path d="M80,97.3436c0,0-0.006,0-0.008,0L4.3768,97.5c-2.2068,0.0036-3.992,1.7948-3.992,4v60.0036c0,2.014,1.498,3.7131,3.494,3.9688l75.6152,9.6252c0.17,0.0216,0.338,0.0311,0.506,0.0311c0.9668,0,1.91-0.3515,2.6444-0.9979c0.8616-0.76,1.3556-1.8536,1.3556-3.0021v-69.7851c0-1.0624-0.422-2.08-1.174-2.832C82.076,97.7636,81.0584,97.3436,80,97.3436z M76,166.5876l-67.6152-8.6072V105.492L76,105.3516V166.5876z" fill="#ffffff"/>
    <path d="M79.4904,12.75l-76,9.7812C1.494,22.7872,0,24.4864,0,26.498v58.6307c0,2.2089,1.7912,4,4,4h76c2.2088,0,4-1.7911,4-4v-68.412c0-1.1503-0.494-2.2443-1.3576-3.004C81.7792,12.9532,80.6252,12.5996,79.4904,12.75z M76,81.1287H8V30.0156l68-8.752V81.1287z" fill="#ffffff"/>
    <path d="M176.3908,97.5L96.006,97.3868H96c-1.0604,0-2.076,0.4196-2.826,1.1696c-0.752,0.75-1.174,1.7676-1.174,2.8304v71.7419c0,2.0021,1.4804,3.6953,3.4648,3.9649l80.3848,10.8711c0.1776,0.0233,0.3576,0.0353,0.5352,0.0353c0.9628,0,1.8984-0.3476,2.6328-0.9884c0.8692-0.7596,1.3672-1.8576,1.3672-3.0116v-82.5C180.3848,99.2927,178.5976,97.5036,176.3908,97.5z M172.3848,179.4216L100,169.6327v-64.2403l72.3848,0.1016V179.4216z" fill="#ffffff"/>
  </g>
</svg>
