<svg class="svg-icon" style="width: 1em; height: 1em;vertical-align: middle;fill: white;overflow: hidden;" viewBox="0 0 1024 1024" version="1.1" xmlns="http://www.w3.org/2000/svg"><path d="M537.677 572.777c129.603 0 234.583-106.004 234.583-236.665 0-130.66-104.98-236.664-234.583-236.664-129.604 0-234.584 106.004-234.584 236.664 0 130.66 104.98 236.665 234.584 236.665z m0-42.472c-106.054 0-192.111-86.897-192.111-194.193 0-107.295 86.057-194.192 192.11-194.192 106.054 0 192.111 86.897 192.111 194.192 0 107.296-86.057 194.193-192.11 194.193z"  /><path d="M1001.664 1024c0-272.569-218.908-493.613-489.048-493.613S23.567 751.431 23.567 1024h42.472c0-249.204 199.986-451.14 446.577-451.14 246.59 0 446.576 201.936 446.576 451.14h42.472zM233.81 572.86c48.036 0 86.894-39.237 86.894-87.535 0-48.298-38.858-87.534-86.894-87.534-48.037 0-86.894 39.236-86.894 87.534 0 48.298 38.857 87.535 86.894 87.535z m0-42.473c-24.487 0-44.422-20.129-44.422-45.062 0-24.933 19.935-45.062 44.422-45.062s44.421 20.13 44.421 45.062c0 24.933-19.934 45.062-44.421 45.062z"  /><path d="M830.543 520.287c7.892-3.074 25.878-8.036 39.195-12.873l2.74-0.994c10.822-3.92 22.43-8.067 34.038-12.176 6.966-2.466 12.381-4.37 15.466-5.448l14.224-4.976V269.01l-11.937-5.815c-2.215-1.079-6.125-2.998-11.16-5.497a1913.992 1913.992 0 0 1-24.583-12.404c-1.597-0.822-1.597-0.822-3.188-1.645-8.843-4.582-16.161-8.51-21.445-11.537-2.732-1.566-4.821-2.835-6.106-3.7 2.101 1.415 2.328 1.606 4.427 6.505C804.258 99.648 670.565 0 531.99 0 337.404 0 179.745 159.197 179.745 355.475c0 23.115 2.189 45.959 6.501 68.31l41.704-8.046c-3.802-19.703-5.733-39.853-5.733-60.264 0-172.913 138.737-313.003 309.773-313.003 120.542 0 239.578 88.724 291.184 209.171 4.108 9.588 7.272 11.4 42.627 29.717 1.645 0.851 1.645 0.851 3.292 1.7a1955.196 1955.196 0 0 0 25.137 12.683 1851.28 1851.28 0 0 0 11.44 5.635l-11.936-19.092v186.465l14.225-20.046a4796.927 4796.927 0 0 0-15.614 5.5 5018.451 5018.451 0 0 0-34.334 12.282l-2.772 1.006c-13.599 4.94-24.855 9.125-33.113 12.342-4.84 1.885-8.638 3.432-11.414 4.663-1.809 0.802-3.278 1.507-4.589 2.237-1.372 0.77-1.372 0.77-3.727 2.485-4.48 2.106-14.325 9.831-7.017 23.547 7.308 13.716 30.88 9.19 35.164 7.52z"  /></svg>
